<svg width="38" height="40" viewBox="0 0 38 40" fill="none" xmlns="http://www.w3.org/2000/svg">
<g clip-path="url(#clip0_4516_938)">
<path d="M37.4163 8.82584L19.2548 0.0581812C19.0938 -0.0194751 18.9063 -0.0194751 18.7453 0.0581812L0.583672 8.82584C0.381172 8.92357 0.252502 9.12865 0.252502 9.35349V30.6464C0.252502 30.8712 0.381172 31.0763 0.583672 31.174L18.7452 39.9417C18.8257 39.9805 18.9129 40 19 40C19.0871 40 19.1742 39.9805 19.2548 39.9417L37.4163 31.174C37.6188 31.0763 37.7475 30.8712 37.7475 30.6464V9.35357C37.7475 9.12857 37.6188 8.92365 37.4163 8.82584ZM19 1.23654L35.8138 9.35349L30.9399 11.7065C30.909 11.6829 30.8764 11.6612 30.8406 11.644L14.141 3.58224L19 1.23654ZM12.8177 4.24474L29.6071 12.3499L26.1684 14.01L9.386 5.9081L12.8177 4.24474ZM29.9999 13.4615V19.5979L26.788 21.1485V15.0121L29.9999 13.4615ZM36.5756 30.2787L19.5859 38.4804V18.4889L23.6385 16.5325C23.9299 16.3918 24.0521 16.0415 23.9114 15.7501C23.7707 15.4587 23.4205 15.3364 23.129 15.4772L19 17.4705L17.3753 16.6861C17.0838 16.5453 16.7336 16.6676 16.5929 16.959C16.4522 17.2504 16.5744 17.6008 16.8658 17.7415L18.4141 18.4889V38.4804L1.42438 30.2786V10.287L14.3619 16.5327C14.444 16.5724 14.5308 16.5912 14.6162 16.5912C14.834 16.5912 15.0432 16.4691 15.1442 16.2598C15.2849 15.9684 15.1627 15.6181 14.8713 15.4774L2.18617 9.35349L8.00688 6.54349L25.608 15.0406C25.6106 15.0442 25.6134 15.0474 25.6161 15.0509V22.0821C25.6161 22.2837 25.7198 22.4711 25.8906 22.5784C25.9854 22.6379 26.0936 22.668 26.2021 22.668C26.289 22.668 26.3761 22.6487 26.4568 22.6097L30.8406 20.4934C31.0431 20.3957 31.1718 20.1907 31.1718 19.9658V12.8958L36.5756 10.2871V30.2787Z" fill="#FFB800"/>
<path d="M6.25983 28.0062L3.59459 26.7196C3.30303 26.5787 2.95287 26.701 2.81217 26.9924C2.67147 27.2839 2.79366 27.6342 3.08506 27.7749L5.7503 29.0615C5.83241 29.1012 5.9192 29.1199 6.0046 29.1199C6.22241 29.1199 6.43163 28.9979 6.53264 28.7886C6.67342 28.4971 6.55124 28.147 6.25983 28.0062Z" fill="#FFB800"/>
<path d="M8.71275 26.4095L3.5983 23.9404C3.30681 23.7997 2.95658 23.9219 2.81588 24.2134C2.67525 24.5048 2.79744 24.8551 3.08884 24.9958L8.2033 27.4649C8.28541 27.5045 8.3722 27.5233 8.45759 27.5233C8.67541 27.5233 8.88463 27.4013 8.98564 27.192C9.1263 26.9004 9.0042 26.5501 8.71275 26.4095Z" fill="#FFB800"/>
</g>
<defs>
<clipPath id="clip0_4516_938">
<rect width="38" height="40" fill="white"/>
</clipPath>
</defs>
</svg>
