<svg width="30" height="40" viewBox="0 0 30 40" fill="none" xmlns="http://www.w3.org/2000/svg">
<g clip-path="url(#clip0_4516_949)">
<path d="M15 39.9998C14.8132 39.9998 14.6253 39.9583 14.4531 39.8728C6.5452 36.0227 -0.000244141 31.8673 -0.000244141 19.9995V6.24928C-0.000244141 5.72315 0.328095 5.25436 0.822505 5.07495L14.5727 0.0748209C14.8486 -0.0252658 15.1513 -0.0252658 15.4272 0.0748209L29.1774 5.07488C29.6718 5.25429 30.0002 5.72308 30.0002 6.24921V19.9994C30.0002 31.8673 23.4547 36.0226 15.5468 39.8728C15.3747 39.9583 15.1867 39.9998 15 39.9998ZM2.49982 7.12451V19.9995C2.49982 29.3246 6.7088 33.2419 15 37.3557C23.2912 33.2419 27.5002 29.3246 27.5002 19.9995V7.12451L15 2.57975L2.49982 7.12451Z" fill="#FFB800"/>
<path d="M14.1162 24.9996L8.23239 19.1158L9.99999 17.3482L14.1162 21.4644L21.9825 13.5981L23.7501 15.3657L14.1162 24.9996Z" fill="#FFB800"/>
</g>
<defs>
<clipPath id="clip0_4516_949">
<rect width="30" height="40" fill="white"/>
</clipPath>
</defs>
</svg>
