<svg width="64" height="40" viewBox="0 0 64 40" fill="none" xmlns="http://www.w3.org/2000/svg">
<g clip-path="url(#clip0_4516_988)">
<path fill-rule="evenodd" clip-rule="evenodd" d="M57.6 15.8609V9.84374H51.2V15.8609H44.8V21.8797H51.2V27.8969H57.6V21.8797H64V15.8609H57.6ZM39.68 15.8609C39.8528 15.8609 40 18.4847 40 19.7453C40 30.709 32.1856 39.2 20.4064 39.2C9.12645 39.2 0 30.6103 0 20.0047C0 9.396 9.12645 0.799988 20.4064 0.799988C25.9168 0.799988 30.5248 2.65988 34.08 5.78593L28.5408 10.7406C27.0272 9.36864 24.3712 7.65624 20.4064 7.65624C13.44 7.65624 7.75361 12.8351 7.75361 19.5234C7.75361 26.2117 13.44 31.1453 20.4064 31.1453C28.4832 31.1453 31.5168 24.8883 31.9808 21.8797H19.2V15.8609H39.68Z" fill="#D6E2F4"/>
</g>
<defs>
<clipPath id="clip0_4516_988">
<rect width="64" height="40" fill="white"/>
</clipPath>
</defs>
</svg>
