<svg width="32" height="32" viewBox="0 0 32 32" fill="none" xmlns="http://www.w3.org/2000/svg">
<path fill-rule="evenodd" clip-rule="evenodd" d="M1.02215 28.2305C-0.462077 26.7462 -0.309594 24.297 1.34727 23.0083L5.95965 19.4209C6.80608 18.7626 7.90817 18.53 8.94845 18.79L13.3266 19.8846C13.7888 20.0001 14.2778 19.8647 14.6146 19.5278L19.5278 14.6146C19.8647 14.2777 20.0001 13.7888 19.8846 13.3266L18.79 8.94845C18.53 7.90817 18.7626 6.80607 19.4209 5.95965L23.0083 1.34727C24.297 -0.309593 26.7462 -0.462075 28.2305 1.02215L30.2983 3.09C31.7777 4.56944 32.4274 6.78225 31.7023 8.8445C29.9021 13.9649 26.9548 18.7712 22.863 22.863C18.7712 26.9548 13.9649 29.9021 8.8445 31.7023C6.78225 32.4274 4.56944 31.7777 3.09 30.2983L1.02215 28.2305Z" fill="#1B5FC1"/>
</svg>
