<svg width="50" height="64" viewBox="0 0 50 64" fill="none" xmlns="http://www.w3.org/2000/svg">
<g clip-path="url(#clip0_4516_1022)">
<path d="M41.6025 19.0964C43.9044 20.9999 50.2189 26.221 49.19 29.8862C48.7141 31.5324 46.8236 32.0596 45.4218 32.5739C42.1937 33.7442 38.8758 34.6702 35.5063 35.3517C32.7799 35.9047 26.9541 37.1135 28.0344 32.2908C28.4586 30.4261 29.9634 28.8441 31.1724 27.4424C33.6544 24.5232 36.1881 21.4365 39.1844 19.0445C39.4288 18.8515 39.7246 18.8001 39.9818 18.8389C40.4835 18.6335 41.0879 18.6593 41.6025 19.0964Z" fill="#D6E2F4" stroke="#D6E2F4" stroke-width="0.280582"/>
<path d="M38.2072 57.5747C36.1881 55.9414 34.7605 53.3822 33.5259 51.1446C32.3169 48.9841 30.4137 46.1289 30.0922 43.6213C29.4364 38.4642 36.9081 41.5638 39.0559 42.3096C41.9108 43.3127 49.5629 44.4187 48.7141 48.8811C48.0068 52.5205 43.6213 56.9574 39.9563 57.5233C39.9179 57.5362 39.8662 57.5233 39.8149 57.5233C39.802 57.5362 39.7891 57.5491 39.7765 57.5618C39.6735 57.6131 39.5579 57.6776 39.442 57.729C39.0046 57.9607 38.5803 57.8707 38.2072 57.5747Z" fill="#D6E2F4" stroke="#D6E2F4" stroke-width="0.280582"/>
<path d="M21.5016 44.3029C25.5655 42.6182 25.9384 47.1578 25.9126 49.91C25.8742 53.1895 25.7712 56.4815 25.5268 59.7481C25.4367 61.0727 25.4884 62.6675 24.228 63.5034C22.6719 64.5323 19.6755 63.722 18.0678 63.2206C18.0164 63.1947 17.9648 63.1692 17.9135 63.1563C14.5313 62.5648 10.4031 61.0087 10.0044 57.8836C9.96568 57.5236 10.1074 57.2021 10.326 56.9577C10.4289 56.7646 10.5316 56.5848 10.6475 56.4176C11.1492 55.7231 11.7278 55.1058 12.3066 54.4756C13.2839 53.0225 14.3386 51.6207 15.4573 50.2703C17.0776 48.3155 19.0709 45.3059 21.5016 44.3029Z" fill="#D6E2F4" stroke="#D6E2F4" stroke-width="0.280582"/>
<path d="M22.0933 30.2078C16.1646 25.3338 10.3902 17.7847 7.40651 10.8016C5.13015 5.49014 10.9174 2.24942 15.3798 0.783374C21.3986 -1.19726 23.7906 0.52608 24.3949 6.54485C24.8966 11.7275 25.1281 16.9488 25.0894 22.1573C25.0765 24.3565 25.6937 27.9059 24.4078 29.8865C24.6135 30.6968 23.3919 31.2754 22.6974 30.7224C22.5944 30.6452 22.4917 30.5422 22.3759 30.4522C22.2732 30.3879 22.1831 30.3107 22.0933 30.2078Z" fill="#D6E2F4" stroke="#D6E2F4" stroke-width="0.280582"/>
<path d="M21.4502 37.7568C21.9261 39.866 20.4342 40.7147 18.6854 41.5121C15.5731 42.9139 12.3066 44.0329 9.02715 44.9588C7.12368 45.486 4.2045 46.7464 2.36556 45.3446C0.976682 44.2902 0.886614 42.091 0.758108 40.4961C0.475281 36.9339 1.0154 28.4331 5.95365 28.0731C8.37143 27.9058 11.3936 30.0663 13.3742 31.1982C16.0106 32.7159 18.84 34.4518 20.8074 36.8312C21.1029 36.9981 21.3472 37.2939 21.4502 37.7568Z" fill="#D6E2F4" stroke="#D6E2F4" stroke-width="0.280582"/>
</g>
<defs>
<clipPath id="clip0_4516_1022">
<rect width="50" height="64" fill="white"/>
</clipPath>
</defs>
</svg>
